<?xml version="1.0" encoding="UTF-8"?> <svg xmlns="http://www.w3.org/2000/svg" width="480" height="480" fill="none" viewBox="0 0 480 480"><path fill="#002D3F" d="M240 480c132.548 0 240-107.452 240-240S372.548 0 240 0 0 107.452 0 240s107.452 240 240 240Z"></path><path fill="#00BCBC" d="M372.72 229.461h-84.7v181.88h84.7v-181.88Z"></path><path fill="#F4BA00" d="M282.38 229.461h-84.7v181.88h84.7v-181.88Z"></path><path fill="#00BCBC" d="M192.22 229.461h-84.7v181.88h84.7v-181.88Z"></path><path fill="#002D3F" d="M149.86 375.692a8.85 8.85 0 0 0 8.85-8.85 8.85 8.85 0 1 0-8.85 8.85Zm90.17 0a8.85 8.85 0 0 0 8.85-8.85 8.85 8.85 0 0 0-8.85-8.85 8.85 8.85 0 0 0-8.85 8.85 8.85 8.85 0 0 0 8.85 8.85Zm90.4 0a8.85 8.85 0 0 0 8.85-8.85 8.85 8.85 0 0 0-8.85-8.85 8.85 8.85 0 0 0-8.85 8.85 8.85 8.85 0 0 0 8.85 8.85ZM178.9 246.762h-58.07a5.97 5.97 0 0 0-5.97 5.97v5.51a5.97 5.97 0 0 0 5.97 5.97h58.07a5.97 5.97 0 0 0 5.97-5.97v-5.51a5.97 5.97 0 0 0-5.97-5.97Zm90.16 0h-58.07a5.97 5.97 0 0 0-5.97 5.97v5.51a5.97 5.97 0 0 0 5.97 5.97h58.07a5.97 5.97 0 0 0 5.97-5.97v-5.51a5.97 5.97 0 0 0-5.97-5.97Zm90.35 0h-58.07a5.97 5.97 0 0 0-5.97 5.97v5.51a5.97 5.97 0 0 0 5.97 5.97h58.07a5.97 5.97 0 0 0 5.97-5.97v-5.51a5.97 5.97 0 0 0-5.97-5.97ZM178.9 286.609h-58.07a5.97 5.97 0 0 0-5.97 5.97v5.51a5.97 5.97 0 0 0 5.97 5.97h58.07a5.97 5.97 0 0 0 5.97-5.97v-5.51a5.97 5.97 0 0 0-5.97-5.97Zm90.16 0h-58.07a5.97 5.97 0 0 0-5.97 5.97v5.51a5.97 5.97 0 0 0 5.97 5.97h58.07a5.97 5.97 0 0 0 5.97-5.97v-5.51a5.97 5.97 0 0 0-5.97-5.97Zm90.35 0h-58.07a5.97 5.97 0 0 0-5.97 5.97v5.51a5.97 5.97 0 0 0 5.97 5.97h58.07a5.97 5.97 0 0 0 5.97-5.97v-5.51a5.97 5.97 0 0 0-5.97-5.97ZM178.9 326.461h-58.07a5.97 5.97 0 0 0-5.97 5.97v5.51a5.97 5.97 0 0 0 5.97 5.97h58.07a5.97 5.97 0 0 0 5.97-5.97v-5.51a5.97 5.97 0 0 0-5.97-5.97Zm90.16 0h-58.07a5.97 5.97 0 0 0-5.97 5.97v5.51a5.97 5.97 0 0 0 5.97 5.97h58.07a5.97 5.97 0 0 0 5.97-5.97v-5.51a5.97 5.97 0 0 0-5.97-5.97Zm90.35 0h-58.07a5.97 5.97 0 0 0-5.97 5.97v5.51a5.97 5.97 0 0 0 5.97 5.97h58.07a5.97 5.97 0 0 0 5.97-5.97v-5.51a5.97 5.97 0 0 0-5.97-5.97Z"></path><path fill="#fff" d="M122.69 229.461c-.84-2.35-1.62-4.73-2.31-7.15l-24.37-3.69c-8.86-1.48-14.77-8.86-14.77-17.72v-19.94c0-8.86 6.65-16.24 15.51-17.72l23.63-4.43c2.95-10.34 7.38-20.67 12.55-29.54l-14.77-19.94c-5.17-7.38-4.43-16.98 2.22-23.63l14.77-14.77c6.65-5.91 16.24-7.38 23.63-2.22l19.94 14.03c9.6-5.17 19.2-9.6 29.54-12.55l4.43-23.63c1.48-8.86 8.86-15.51 17.72-15.51h19.94c8.86 0 16.24 6.65 17.72 15.51l4.43 23.63c10.34 2.95 20.67 7.38 29.54 12.55l19.94-14.03c7.38-5.17 16.98-4.43 23.63 2.22l14.77 14.77c5.17 5.91 5.91 16.24.74 23.63l-13.29 19.94c5.17 9.6 9.6 19.2 12.55 29.54l23.63 4.43c8.86 1.48 14.77 9.6 14.77 17.72v19.94c0 8.86-5.91 16.24-14.77 17.72l-23.63 4.43c-.61 2.14-1.29 4.28-2.02 6.41H122.69Z"></path><path fill="#00BCBC" d="M306.36 130.049c-17.74-17.74-41.31-27.51-66.36-27.51-25.05 0-48.62 9.77-66.36 27.51a5.498 5.498 0 0 0 0 7.78l16.66 16.66a5.498 5.498 0 0 0 7.78 0c11.2-11.21 26.09-17.38 41.92-17.38 15.83 0 30.72 6.17 41.92 17.38a5.503 5.503 0 0 0 3.89 1.61c2.38 0 3.77-1.5 3.89-1.61l16.66-16.66a5.498 5.498 0 0 0 0-7.78Z"></path><path fill="#002D3F" d="M306.36 130.049c-17.74-17.74-41.31-27.51-66.36-27.51v34.57c15.83 0 30.721 6.17 41.921 17.38a5.5 5.5 0 0 0 3.889 1.61c2.38 0 3.771-1.5 3.891-1.61l16.659-16.66a5.498 5.498 0 0 0 0-7.78Z"></path><path fill="#F4BA00" d="M180.7 196.401c0-15.82 6.17-30.71 17.38-41.91l-24.44-24.44c-17.74 17.74-27.51 41.3-27.51 66.36h34.57v-.01Zm118.6 0c0-15.82-6.17-30.71-17.38-41.91l24.44-24.44c17.74 17.74 27.51 41.3 27.51 66.36l-34.57-.01Z"></path><path fill="#00BCBC" d="M227.17 193.389c6.69 4.7 15.96 3.08 20.66-3.61 5.94-8.45 22.33-47.77 24.18-52.22.85-2.04.16-4.4-1.65-5.67a4.704 4.704 0 0 0-5.89.381c-3.56 3.25-34.98 32.02-40.92 40.47-4.7 6.69-3.08 15.959 3.61 20.659l.01-.01Z"></path><path fill="#002D3F" d="M266.92 176.121h-53.84c-10.576 0-19.15 8.572-19.15 19.145 0 10.574 8.574 19.145 19.15 19.145h53.84c10.576 0 19.15-8.571 19.15-19.145 0-10.573-8.574-19.145-19.15-19.145Z"></path><path fill="#fff" d="M231.36 188.07v14.7h-3.4v-6.03h-6.68v6.03h-3.4v-14.7h3.4v5.79h6.68v-5.79h3.4Zm16.231 5.329c0 3.28-2.46 5.31-6.38 5.31h-2.96v4.05h-3.4v-14.7h6.36c3.93 0 6.38 2.04 6.38 5.33v.01Zm-3.44 0c0-1.62-1.05-2.56-3.13-2.56h-2.77v5.1h2.77c2.08 0 3.13-.94 3.13-2.54Zm5.14 2.021c0-4.43 3.4-7.6 7.98-7.6 2.54 0 4.66.92 6.05 2.6l-2.18 2.02c-.99-1.13-2.23-1.72-3.7-1.72-2.75 0-4.7 1.93-4.7 4.7 0 2.77 1.95 4.7 4.7 4.7 1.47 0 2.71-.59 3.7-1.74l2.18 2.02c-1.39 1.7-3.51 2.62-6.07 2.62-4.56 0-7.96-3.17-7.96-7.6Z"></path></svg> 